<?xml version="1.0" standalone="no"?>
<!DOCTYPE svg PUBLIC "-//W3C//DTD SVG 20010904//EN"
 "http://www.w3.org/TR/2001/REC-SVG-20010904/DTD/svg10.dtd">
<svg version="1.0" xmlns="http://www.w3.org/2000/svg"
 width="1024.000000pt" height="1024.000000pt" viewBox="0 0 1024.000000 1024.000000"
 preserveAspectRatio="xMidYMid meet">

<g transform="translate(0.000000,1024.000000) scale(0.100000,-0.100000)"
fill="#000000" stroke="none">
<path d="M7730 9098 c-35 -135 -82 -239 -162 -355 -149 -215 -453 -408 -860
-543 -67 -23 -258 -74 -423 -115 -350 -86 -453 -119 -590 -187 -288 -144 -465
-347 -526 -603 -36 -152 -15 -403 34 -413 11 -2 18 6 22 25 33 152 97 280 170
341 103 84 232 123 292 87 90 -53 95 -171 18 -475 -72 -287 -431 -1424 -450
-1425 -12 0 -43 86 -251 700 -295 870 -477 1379 -510 1429 -27 42 -67 35 -97
-17 -106 -181 -385 -499 -513 -585 -90 -60 -91 -84 -9 -136 84 -54 118 -149
95 -262 -15 -70 -51 -170 -257 -699 -250 -642 -387 -980 -398 -978 -23 4 -130
508 -240 1128 -114 645 -126 881 -57 1089 31 94 79 161 194 272 91 87 181 157
285 220 38 23 70 49 71 59 4 16 -2 17 -75 9 -118 -13 -350 -11 -413 5 -128 31
-241 96 -473 273 -159 120 -324 205 -472 244 -236 61 -524 21 -763 -107 -129
-69 -185 -110 -287 -213 -162 -164 -178 -221 -44 -166 105 44 180 60 284 60
113 0 198 -20 300 -70 217 -106 358 -275 443 -532 46 -139 93 -362 217 -1030
80 -429 145 -772 259 -1368 71 -373 77 -522 27 -664 -48 -138 -140 -245 -380
-445 -176 -146 -246 -216 -313 -314 -121 -177 -171 -394 -135 -586 9 -46 22
-89 28 -97 18 -22 39 2 39 45 0 60 28 170 58 235 65 137 176 246 342 335 235
125 522 117 762 -24 42 -25 117 -84 167 -131 58 -55 96 -84 106 -81 8 4 28 36
44 72 54 118 138 235 250 346 117 116 205 175 323 216 80 27 98 38 98 59 0 7
-40 43 -90 79 -107 79 -160 137 -201 221 -40 82 -49 184 -25 305 29 143 187
595 418 1199 112 291 160 402 174 407 14 4 31 -42 179 -477 191 -560 362
-1083 386 -1176 l23 -91 -23 -69 c-52 -155 -150 -390 -237 -564 -161 -322
-291 -498 -583 -790 -238 -237 -438 -392 -713 -554 -248 -145 -535 -246 -745
-263 -142 -11 -132 -42 24 -75 128 -27 381 -29 528 -4 297 50 583 152 838 298
277 159 472 311 727 567 238 239 391 429 432 536 l16 40 16 -40 c9 -22 53
-152 97 -290 96 -298 104 -318 127 -313 9 2 38 42 65 93 207 383 547 806 820
1020 43 33 77 67 77 77 0 15 -10 16 -102 11 -155 -8 -240 17 -364 110 -143
108 -256 320 -285 534 -18 139 0 264 78 533 54 189 452 1391 464 1404 5 6 17
-11 30 -40 12 -27 63 -137 114 -244 345 -722 513 -1245 554 -1728 6 -62 13
-117 16 -122 13 -21 45 -9 61 22 9 18 56 151 104 298 147 448 279 747 514
1165 228 406 320 543 347 518 22 -22 31 -319 25 -828 -13 -999 -38 -1275 -136
-1480 -76 -159 -226 -318 -419 -445 -104 -69 -128 -91 -116 -110 3 -4 40 -16
82 -25 150 -33 187 -70 187 -185 0 -121 -54 -233 -197 -409 -186 -227 -472
-507 -865 -844 -130 -113 -252 -221 -271 -240 -62 -65 -15 -55 166 37 504 255
1125 652 2073 1324 296 210 773 567 804 601 35 39 17 48 -111 53 -141 7 -208
28 -279 91 -124 109 -187 277 -214 572 -15 167 -13 952 5 1600 23 855 30 972
66 1113 59 232 213 454 434 625 101 78 114 93 93 113 -11 11 -29 12 -98 3
-216 -26 -518 -133 -861 -304 -241 -119 -283 -155 -403 -344 -116 -181 -403
-698 -565 -1018 -40 -79 -76 -143 -80 -143 -10 0 -288 641 -376 865 -70 178
-137 380 -161 482 l-16 68 26 20 c14 11 145 89 290 173 332 192 412 248 556
392 182 181 272 336 322 552 18 77 22 123 21 268 -1 191 -8 233 -41 238 -17 3
-23 -4 -32 -40z"/>
</g>
</svg>
