<?xml version="1.0" standalone="no"?>
<!DOCTYPE svg PUBLIC "-//W3C//DTD SVG 20010904//EN"
 "http://www.w3.org/TR/2001/REC-SVG-20010904/DTD/svg10.dtd">
<svg version="1.0" xmlns="http://www.w3.org/2000/svg"
 width="500.000000pt" height="500.000000pt" viewBox="0 0 500.000000 500.000000"
 preserveAspectRatio="xMidYMid meet">

<g transform="translate(0.000000,500.000000) scale(0.100000,-0.100000)"
fill="#000000" stroke="none">
<path d="M2496 4345 c-5 -16 -14 -56 -22 -87 -15 -63 -62 -174 -93 -216 -20
-28 -20 -28 0 -41 47 -29 57 -113 21 -171 -42 -67 -59 -73 -318 -115 -20 -4
-35 0 -43 9 -14 17 -64 10 -168 -22 -20 -7 -33 -7 -33 -1 0 12 77 89 89 89 5
0 11 37 13 83 4 83 19 128 70 207 l23 35 -43 -33 c-49 -39 -74 -71 -65 -85 3
-6 1 -7 -5 -4 -22 14 -90 -89 -143 -213 -25 -61 -31 -90 -33 -155 -1 -77 0
-80 26 -93 42 -20 68 -60 68 -103 0 -33 -30 -185 -60 -299 -5 -19 -13 -55 -19
-80 -13 -57 -46 -202 -71 -305 -10 -44 -33 -142 -51 -218 -18 -76 -35 -134
-39 -130 -3 4 -11 31 -18 58 -6 28 -29 124 -51 215 -22 91 -50 207 -61 259
-21 97 -112 476 -131 545 -6 21 -12 36 -15 34 -7 -7 -152 -606 -230 -947 -3
-13 -8 -21 -11 -17 -5 5 -41 205 -73 406 -6 36 -22 126 -35 200 -14 74 -28
150 -31 168 -2 19 -11 65 -19 104 -8 38 -15 94 -15 125 0 50 3 58 35 87 39 36
37 46 -11 46 -18 0 -46 5 -61 11 -78 32 -142 63 -183 89 -66 42 -173 80 -243
86 l-62 5 31 -18 c85 -49 172 -150 212 -244 26 -62 55 -176 93 -369 11 -59
159 -801 171 -860 5 -25 13 -67 17 -95 13 -75 28 -151 45 -235 33 -158 13
-286 -68 -424 -51 -87 -151 -190 -235 -241 -35 -22 -58 -41 -52 -43 15 -5 134
34 191 63 56 29 126 82 264 203 59 50 131 106 161 123 l54 30 -38 35 c-63 57
-86 120 -85 244 0 58 5 122 12 143 13 39 25 79 41 137 18 65 71 265 93 348 12
45 25 82 29 82 3 0 34 -116 69 -257 34 -142 80 -332 102 -423 38 -159 109
-390 127 -419 13 -20 34 94 121 649 50 326 89 552 120 696 46 218 89 496 80
514 -5 9 -30 23 -55 30 -25 7 -45 16 -45 20 0 7 86 24 270 52 113 17 651 17
775 -1 160 -23 259 -41 268 -50 4 -4 -13 -14 -38 -21 -31 -9 -49 -20 -54 -34
-11 -32 10 -256 24 -256 7 0 18 26 25 58 26 110 49 159 96 200 41 37 44 43 44
90 0 138 -86 319 -209 438 -30 30 -56 52 -58 50 -2 -2 9 -23 26 -47 58 -88 82
-216 47 -252 -13 -13 -13 -17 2 -33 27 -30 72 -90 72 -97 0 -4 -24 2 -52 13
-76 29 -163 48 -243 53 -138 10 -235 62 -256 139 -15 57 -4 102 31 130 l30 24
-28 44 c-39 62 -61 120 -87 225 -20 79 -23 86 -29 60z m50 -540 c29 -15 29
-15 4 -14 -14 0 -38 6 -55 14 l-30 13 26 1 c15 1 40 -6 55 -14z"/>
<path d="M4455 3836 c-39 -12 -117 -48 -175 -78 -121 -65 -215 -98 -277 -98
l-44 0 20 -26 c30 -39 27 -98 -13 -217 -19 -56 -80 -244 -137 -417 l-102 -314
-23 59 c-12 33 -84 246 -160 473 l-138 414 -18 -54 c-9 -29 -18 -55 -18 -56 0
-2 -27 -32 -61 -67 l-60 -63 -5 -78 c-5 -87 -31 -420 -39 -499 -8 -74 -25
-228 -36 -325 -28 -250 -50 -471 -59 -600 -11 -155 -5 -194 31 -205 27 -9 23
-28 -8 -42 -105 -46 -308 -68 -613 -68 -242 1 -532 25 -625 53 l-30 9 38 18
c30 15 36 23 31 39 -4 12 -12 76 -18 143 -6 67 -14 124 -18 128 -3 3 -9 -13
-13 -37 -12 -70 -52 -182 -85 -238 l-32 -54 17 -65 c25 -103 68 -183 130 -239
46 -42 95 -71 95 -55 0 2 -11 23 -24 46 -13 23 -27 53 -31 66 -4 13 -20 44
-36 69 -16 25 -29 49 -29 52 0 4 37 -4 81 -17 54 -15 107 -23 159 -23 113 0
191 -36 253 -117 38 -51 39 -122 1 -152 -15 -12 -35 -21 -45 -21 -15 0 -13 -8
17 -57 48 -80 91 -196 120 -326 14 -62 27 -113 28 -115 2 -1 9 28 16 65 32
179 76 309 131 390 29 41 29 42 7 45 -27 4 -68 61 -68 95 0 72 68 140 169 170
31 9 99 17 151 18 63 2 108 8 134 19 21 10 41 15 44 12 9 -9 -27 -92 -69 -156
-21 -33 -39 -63 -39 -66 0 -2 10 0 21 7 42 22 113 95 181 186 81 108 150 173
218 205 56 26 60 33 26 42 -32 8 -83 52 -101 87 -11 20 -15 62 -15 141 0 109
34 887 46 1037 6 71 6 73 19 45 8 -16 23 -49 34 -73 12 -25 21 -48 21 -53 0
-5 9 -30 21 -56 73 -165 167 -426 230 -642 16 -57 23 -70 29 -55 4 11 35 106
69 210 68 209 173 492 242 654 l44 104 3 -574 c2 -578 -2 -679 -33 -740 -17
-33 -48 -64 -88 -89 l-28 -17 38 -7 c65 -10 134 -49 245 -139 139 -111 208
-152 307 -183 103 -32 130 -29 73 8 -105 70 -208 206 -252 333 -37 106 -41
227 -37 990 4 804 0 758 68 921 35 85 106 170 175 210 24 14 44 28 44 30 0 11
-62 1 -125 -20z"/>
<path d="M2081 3521 c-35 -9 -53 -80 -54 -211 -1 -114 13 -178 63 -281 35 -72
42 -83 130 -180 97 -106 107 -120 130 -171 34 -76 24 -133 -41 -230 -22 -32
-39 -63 -39 -68 0 -6 -4 -9 -8 -6 -12 7 -123 -108 -171 -179 -64 -91 -85 -173
-78 -303 5 -120 27 -198 59 -207 27 -9 28 -5 17 40 -31 135 -15 269 46 383 20
37 74 112 120 167 47 56 101 133 122 175 33 67 37 82 37 155 0 100 -15 132
-127 261 -145 167 -196 273 -203 429 -6 127 14 183 74 205 23 9 39 19 36 23
-9 9 -80 7 -113 -2z m-11 -251 c0 -5 -4 -10 -10 -10 -5 0 -10 5 -10 10 0 6 5
10 10 10 6 0 10 -4 10 -10z"/>
<path d="M2210 3520 c0 -5 7 -10 16 -10 8 0 12 5 9 10 -3 6 -10 10 -16 10 -5
0 -9 -4 -9 -10z"/>
<path d="M2905 3503 c48 -127 21 -325 -65 -467 -18 -29 -70 -96 -115 -150
-121 -141 -139 -179 -140 -291 0 -83 3 -95 33 -150 18 -33 65 -98 104 -145
148 -177 183 -258 183 -425 0 -60 -4 -127 -8 -147 l-8 -38 35 0 34 0 16 69
c31 137 12 297 -49 408 -15 28 -74 102 -132 164 -138 150 -163 189 -163 252 0
92 16 121 138 251 85 92 122 138 148 193 38 77 64 181 64 254 0 99 -39 239
-67 239 -10 0 -13 -6 -8 -17z"/>
<path d="M2174 3363 c-11 -28 -15 -62 -12 -124 4 -119 44 -195 183 -352 137
-155 149 -186 142 -352 -4 -98 -10 -132 -31 -185 -34 -86 -85 -160 -176 -260
-103 -112 -120 -145 -120 -227 0 -90 30 -143 92 -164 58 -19 435 -20 490 -1
53 19 80 60 80 125 1 47 -22 117 -38 117 -3 0 -3 -4 1 -9 11 -19 23 -107 18
-134 -8 -41 -37 -55 -144 -68 -80 -10 -126 -9 -270 5 -187 18 -199 22 -199 76
0 65 29 128 81 174 28 25 55 46 59 46 5 0 -7 -30 -26 -66 -35 -67 -43 -121
-22 -142 7 -7 37 -12 68 -12 127 0 219 119 207 269 -2 36 -14 88 -26 115 -12
28 -21 59 -19 69 2 15 10 9 35 -30 18 -27 51 -69 73 -94 l41 -44 -34 50 c-86
126 -112 211 -122 405 -4 69 -11 152 -16 185 -12 69 -69 192 -110 237 -16 16
-29 32 -29 35 0 3 -14 23 -32 45 -26 33 -28 39 -12 35 10 -3 37 -11 59 -17 22
-6 65 -10 95 -8 l55 3 -40 8 c-92 18 -93 20 -40 29 63 11 112 26 248 76 82 30
110 37 113 27 7 -18 -14 -91 -42 -147 -31 -61 -31 -72 1 -25 60 88 84 188 48
200 -10 4 -36 13 -58 21 -31 12 -86 16 -248 16 l-209 0 -34 34 c-19 19 -37 48
-40 65 -9 41 -20 39 -40 -6z m236 -1263 c0 -5 -5 -10 -11 -10 -5 0 -7 5 -4 10
3 6 8 10 11 10 2 0 4 -4 4 -10z"/>
<path d="M3081 3214 c0 -11 3 -14 6 -6 3 7 2 16 -1 19 -3 4 -6 -2 -5 -13z"/>
<path d="M2670 2076 c0 -2 8 -10 18 -17 15 -13 16 -12 3 4 -13 16 -21 21 -21
13z"/>
<path d="M2760 1970 c6 -11 13 -20 16 -20 2 0 0 9 -6 20 -6 11 -13 20 -16 20
-2 0 0 -9 6 -20z"/>
</g>
</svg>
