<svg version="1.0" xmlns="http://www.w3.org/2000/svg" width="500.000000pt" height="500.000000pt" viewBox="0 0 500.000000 500.000000" preserveAspectRatio="xMidYMid meet">
    <g transform="matrix(0.11791, 0, 0, -0.11791, -44.740624, 545.136422)" fill="#000" stroke="none" style="">
        <path d="M 2835 3723 C 2697 3733 2343 3757 2084 3715 C 2064 3711 1748 3690 1746 3625 C 1745 3548 1746 3545 1772 3532 C 1814 3512 1840 3472 1840 3429 C 1840 3396 1810 3244 1780 3130 C 1775 3111 1767 3075 1761 3050 C 1748 2993 1715 2848 1690 2745 C 1680 2701 1657 2603 1639 2527 C 1621 2451 1604 2393 1600 2397 C 1597 2401 1589 2428 1582 2455 C 1576 2483 1553 2579 1531 2670 C 1509 2761 1481 2877 1470 2929 C 1449 3026 1358 3405 1339 3474 C 1333 3495 1327 3510 1324 3508 C 1317 3501 1172 2902 1094 2561 C 1091 2548 1086 2540 1083 2544 C 1078 2549 1042 2749 1010 2950 C 1004 2986 988 3076 975 3150 C 961 3224 947 3300 944 3318 C 942 3337 933 3383 925 3422 C 917 3460 910 3516 910 3547 C 910 3597 913 3605 945 3634 C 984 3670 982 3680 934 3680 C 916 3680 888 3685 873 3691 C 795 3723 731 3754 690 3780 C 624 3822 517 3860 447 3866 L 385 3871 L 416 3853 C 501 3804 588 3703 628 3609 C 654 3547 683 3433 721 3240 C 732 3181 880 2439 892 2380 C 897 2355 905 2313 909 2285 C 922 2210 937 2134 954 2050 C 987 1892 967 1764 886 1626 C 835 1539 735 1436 651 1385 C 616 1363 593 1344 599 1342 C 614 1337 733 1376 790 1405 C 846 1434 916 1487 1054 1608 C 1113 1658 1185 1714 1215 1731 L 1269 1761 L 1231 1796 C 1168 1853 1145 1916 1146 2040 C 1146 2098 1151 2162 1158 2183 C 1171 2222 1183 2262 1199 2320 C 1217 2385 1270 2585 1292 2668 C 1304 2713 1317 2750 1321 2750 C 1324 2750 1355 2634 1390 2493 C 1424 2351 1470 2161 1492 2070 C 1530 1911 1601 1680 1619 1651 C 1632 1631 1653 1745 1740 2300 C 1790 2626 1829 2852 1860 2996 C 1906 3214 1949 3492 1940 3510 C 1935 3519 1910 3533 1885 3540 C 1860 3547 1840 3556 1840 3560 C 1840 3567 1926 3584 2110 3612 C 2223 3629 2761 3629 2885 3611 C 3045 3588 3144 3570 3153 3561 C 3157 3557 3140 3547 3115 3540 C 3084 3531 3066 3520 3061 3506 C 3050 3474 3071 3250 3085 3250 C 3092 3250 3103 3276 3110 3308 C 3136 3418 3159 3467 3206 3508 C 3247 3545 3250 3551 3250 3598 C 3250 3736 3164 3917 3041 4036 C 3011 4066 2985 4088 2983 4086 C 2981 4084 2992 4063 3009 4039 C 3067 3951 3091 3823 3056 3787 C 3043 3774 3043 3770 3058 3754 C 3085 3724 3130 3664 3130 3657 C 3130 3653 3106 3659 3078 3670 C 3002 3699 2915 3718 2835 3723 Z"></path>
        <path d="M 4455 3836 C 4416 3824 4338 3788 4280 3758 C 4159 3693 4065 3660 4003 3660 L 3959 3660 L 3979 3634 C 4009 3595 4006 3536 3966 3417 C 3947 3361 3886 3173 3829 3000 L 3727 2686 L 3704 2745 C 3692 2778 3620 2991 3544 3218 L 3406 3632 L 3388 3578 C 3379 3549 3370 3523 3370 3522 C 3370 3520 3343 3490 3309 3455 L 3249 3392 L 3244 3314 C 3239 3227 3213 2894 3205 2815 C 3197 2741 3180 2587 3169 2490 C 3141 2240 3119 2019 3110 1890 C 3099 1735 3105 1696 3141 1685 C 3168 1676 3164 1657 3133 1643 C 3028 1597 2825 1575 2520 1575 C 2278 1576 1988 1600 1895 1628 L 1865 1637 L 1903 1655 C 1933 1670 1939 1678 1934 1694 C 1930 1706 1922 1770 1916 1837 C 1910 1904 1902 1961 1898 1965 C 1895 1968 1889 1952 1885 1928 C 1873 1858 1833 1746 1800 1690 L 1768 1636 L 1785 1571 C 1810 1468 1853 1388 1915 1332 C 1961 1290 2010 1261 2010 1277 C 2010 1279 1999 1300 1986 1323 C 1973 1346 1959 1376 1955 1389 C 1951 1402 1935 1433 1919 1458 C 1903 1483 1890 1507 1890 1510 C 1890 1514 1927 1506 1971 1493 C 2025 1478 2078.165 1474.145 2130 1470 C 2568.985 1434.894 2858 1464 2910 1465 C 2973 1467 3018 1473 3044 1484 C 3065 1494 3085 1499 3088 1496 C 3097 1487 3332 1640 3400 1672 C 3456 1698 3460 1705 3426 1714 C 3394 1722 3343 1766 3325 1801 C 3314 1821 3310 1863 3310 1942 C 3310 2051 3344 2829 3356 2979 C 3362 3050 3362 3052 3375 3024 C 3383 3008 3398 2975 3409 2951 C 3421 2926 3430 2903 3430 2898 C 3430 2893 3439 2868 3451 2842 C 3524 2677 3618 2416 3681 2200 C 3697 2143 3704 2130 3710 2145 C 3714 2156 3745 2251 3779 2355 C 3847 2564 3952 2847 4021 3009 L 4065 3113 L 4068 2539 C 4070 1961 4066 1860 4035 1799 C 4018 1766 3987 1735 3947 1710 L 3919 1693 L 3957 1686 C 4022 1676 4091 1637 4202 1547 C 4341 1436 4410 1395 4509 1364 C 4612 1332 4639 1335 4582 1372 C 4477 1442 4374 1578 4330 1705 C 4293 1811 4289 1932 4293 2695 C 4297 3499 4293 3453 4361 3616 C 4396 3701 4467 3786 4536 3826 C 4560 3840 4580 3854 4580 3856 C 4580 3867 4518 3857 4455 3836 Z"></path>
        <path d="M 2081 3521 C 2046 3512 2028 3441 2027 3310 C 2026 3196 2040 3132 2090 3029 C 2125 2957 2132 2946 2220 2849 C 2317 2743 2327 2729 2350 2678 C 2384 2602 2374 2545 2309 2448 C 2287 2416 2270 2385 2270 2380 C 2270 2374 2266 2371 2262 2374 C 2250 2381 2139 2266 2091 2195 C 2027 2104 2006 2022 2013 1892 C 2018 1772 2040 1694 2072 1685 C 2099 1676 2100 1680 2089 1725 C 2058 1860 2074 1994 2135 2108 C 2155 2145 2209 2220 2255 2275 C 2302 2331 2356 2408 2377 2450 C 2410 2517 2414 2532 2414 2605 C 2414 2705 2399 2737 2287 2866 C 2142 3033 2091 3139 2084 3295 C 2078 3422 2098 3478 2158 3500 C 2181 3509 2197 3519 2194 3523 C 2185 3532 2114 3530 2081 3521 Z"></path>
        <path d="M2905 3503 c48 -127 21 -325 -65 -467 -18 -29 -70 -96 -115 -150
-121 -141 -139 -179 -140 -291 0 -83 3 -95 33 -150 18 -33 65 -98 104 -145
148 -177 183 -258 183 -425 0 -60 -4 -127 -8 -147 l-8 -38 35 0 34 0 16 69
c31 137 12 297 -49 408 -15 28 -74 102 -132 164 -138 150 -163 189 -163 252 0
92 16 121 138 251 85 92 122 138 148 193 38 77 64 181 64 254 0 99 -39 239
-67 239 -10 0 -13 -6 -8 -17z"></path>
        <path d="M 2174 3363 C 2163 3335 2159 3301 2162 3239 C 2166 3120 2206 3044 2345 2887 C 2482 2732 2494 2701 2487 2535 C 2483 2437 2477 2403 2456 2350 C 2422 2264 2371 2190 2280 2090 C 2177 1978 2160 1945 2160 1863 C 2160 1773 2190 1720 2252 1699 C 2310 1680 2687 1679 2742 1698 C 2795 1717 2822 1758 2822 1823 C 2823 1870 2800 1940 2784 1940 C 2781 1940 2781 1936 2785 1931 C 2796 1912 2808 1824 2803 1797 C 2795 1756 2766 1742 2659 1729 C 2579 1719 2533 1720 2389 1734 C 2202 1752 2190 1756 2190 1810 C 2190 1875 2219 1938 2271 1984 C 2299 2009 2326 2030 2330 2030 C 2335 2030 2323 2000 2304 1964 C 2269 1897 2261 1843 2282 1822 C 2289 1815 2319 1810 2350 1810 C 2477 1810 2569 1929 2557 2079 C 2555 2115 2543 2167 2531 2194 C 2519 2222 2510 2253 2512 2263 C 2514 2278 2522 2272 2547 2233 C 2565 2206 2598 2164 2620 2139 L 2661 2095 L 2627 2145 C 2541 2271 2515 2356 2505 2550 C 2501 2619 2494 2702 2489 2735 C 2477 2804 2420 2927 2379 2972 C 2363 2988 2350 3004 2350 3007 C 2350 3010 2336 3030 2318 3052 C 2292 3085 2290 3091 2306 3087 C 2316 3084 2343 3076 2365 3070 C 2387 3064 2430 3060 2460 3062 L 2515 3065 L 2475 3073 C 2383 3091 2382 3093 2435 3102 C 2498 3113 2547 3128 2683 3178 C 2765 3208 2793 3215 2796 3205 C 2803 3187 2782 3114 2754 3058 C 2723 2997 2723 2986 2755 3033 C 2815 3121 2839 3221 2803 3233 C 2793 3237 2767 3246 2745 3254 C 2714 3266 2659 3270 2497 3270 L 2288 3270 L 2254 3304 C 2235 3323 2217 3352 2214 3369 C 2205 3410 2194 3408 2174 3363 Z"></path>
        <path d="M2670 2076 c0 -2 8 -10 18 -17 15 -13 16 -12 3 4 -13 16 -21 21 -21
13z"></path>
        <path d="M2760 1970 c6 -11 13 -20 16 -20 2 0 0 9 -6 20 -6 11 -13 20 -16 20
-2 0 0 -9 6 -20z"></path>
    </g>
</svg>