<?xml version="1.0" encoding="utf-8"?>
<svg version="1.0" xmlns="http://www.w3.org/2000/svg" width="500.000000pt" height="500.000000pt" viewBox="0 0 500.000000 500.000000" preserveAspectRatio="xMidYMid meet">
  <text style="fill: rgb(51, 51, 51); font-family: Arial, sans-serif; font-size: 28px; font-weight: 700; white-space: pre;" x="359.535" y="272.823"> </text>
  <path d="M 474.698 170.631 C 472.407 179.343 470.721 188.28 469.64 197.456 C 468.56 206.635 468.025 216.65 468.035 227.493 C 468.076 270.755 470.74 310.333 476.011 346.224 C 481.291 382.117 489.056 413.192 499.303 439.434 C 493.175 442.916 487.419 445.501 482.058 447.187 C 476.688 448.863 471.447 449.702 466.328 449.711 C 460.967 449.711 456.747 448.509 453.668 446.107 C 450.598 443.694 448.357 439.816 446.944 434.456 C 446.177 431.245 444.754 406.772 442.663 361.026 C 440.574 315.289 437.655 270.655 433.899 227.129 C 407.235 279.922 379.158 337.754 349.688 400.603 C 344.325 412.255 340.631 420.16 338.591 424.319 C 336.157 429.408 333.765 433.032 331.402 435.172 C 329.04 437.313 326.324 438.393 323.255 438.393 C 317.127 438.403 310.786 431.043 304.253 416.312 C 302.719 412.961 301.498 410.355 300.598 408.478 C 279.851 364.439 262.334 327.719 248.048 298.328 C 233.762 268.938 222.01 245.544 212.793 228.14 C 210.651 262.032 208.611 303.589 206.674 352.817 C 204.745 402.047 202.493 430.478 199.95 438.11 C 198.677 442.271 196.759 445.278 194.205 447.157 C 191.651 449.034 188.197 449.974 183.846 449.983 C 180.525 449.983 176.465 449.146 171.671 447.48 C 166.874 445.815 161.281 443.24 154.879 439.766 C 164.834 413.637 172.407 382.552 177.617 346.517 C 182.826 310.484 185.402 270.492 185.361 226.565 C 185.351 215.984 184.805 206.17 183.705 197.134 C 182.614 188.087 181.039 179.354 178.98 170.913 C 183.2 167.026 187.067 164.21 190.581 162.464 C 194.094 160.716 234.105 189.48 261.516 248.786 C 271.895 271.148 280.286 288.959 286.697 302.215 C 301.165 332.201 311.059 352.011 316.379 361.652 C 321.689 371.294 325.183 376.109 326.84 376.109 C 330.292 376.1 347.719 342.6 379.098 275.602 C 392.111 247.999 402.51 225.948 410.295 209.472 C 418.715 191.51 426.157 178.719 432.597 171.076 C 439.049 163.433 445.47 159.606 451.86 159.606 C 455.576 159.595 459.18 160.463 462.704 162.201 C 466.218 163.938 470.215 166.754 474.698 170.631 Z" style="text-wrap-mode: nowrap; stroke-width: 50px;"/>
  <path d="M 217.9 53.535 C 221.606 52.071 225.059 51.01 228.249 50.335 C 231.44 49.658 234.429 49.324 237.215 49.324 C 242.677 49.315 246.645 50.83 249.148 53.867 C 251.642 56.907 252.895 61.834 252.904 68.639 C 252.914 78.856 249.39 93.758 242.334 113.335 C 235.266 132.922 224.675 157.011 210.541 185.604 C 222.868 211.127 241.172 220.516 248.906 233.641 C 256.63 246.767 260.952 260.457 265.535 254.854 C 270.108 249.261 274.722 242.325 279.356 234.056 C 297.773 202.05 311.179 173.68 319.57 148.924 C 327.971 124.168 332.15 100.845 332.13 78.958 C 332.13 73.979 331.745 69.144 330.989 64.46 C 330.221 59.785 329.152 55.191 327.748 50.698 C 331.464 49.234 335.008 48.103 338.37 47.316 C 341.732 46.517 344.861 46.114 347.769 46.114 C 354.15 46.114 358.763 47.993 361.611 51.758 C 364.458 55.523 365.892 61.722 365.901 70.355 C 365.911 90.669 361.126 114.627 351.514 142.241 C 341.914 169.844 328.243 198.557 310.514 228.371 L 309.464 230.189 C 276.328 286.404 262.819 310.868 257.024 310.868 C 250.401 310.877 225.543 217.598 193.851 211.148 C 174.264 244.485 157.838 270.068 144.561 287.898 C 131.295 305.719 122.107 314.644 116.999 314.644 C 113.748 314.644 109.477 310.212 104.187 301.346 C 98.896 292.472 93.171 279.954 87.004 263.789 C 77.694 240.204 66.003 208.906 51.918 169.884 C 29.111 106.187 12.19 69.911 1.154 61.036 C 5.324 56.17 9.383 52.525 13.331 50.082 C 17.268 47.648 21.277 46.427 25.335 46.427 C 32.07 46.418 37.703 49.274 42.237 54.979 C 46.769 60.693 52.818 74.424 60.38 96.191 C 65.155 110.164 71.668 129.247 79.935 153.437 C 105.076 227.714 120.371 264.848 125.823 264.839 C 129.77 264.839 136.697 257.781 146.61 243.667 C 156.526 229.552 168.309 209.714 181.989 184.17 C 167.551 146.734 155.637 119.08 146.217 101.209 C 136.798 83.349 127.903 71.315 119.544 65.125 C 122.906 59.643 126.5 55.666 130.325 53.161 C 134.152 50.667 138.504 49.416 143.38 49.416 C 155.911 49.405 173.821 83.612 197.102 152.053 C 197.8 154.365 198.385 156.062 198.85 157.152 C 206.371 139.757 211.985 124.4 215.69 111.083 C 219.395 97.766 221.232 86.368 221.223 76.876 C 221.223 73.233 220.929 69.406 220.344 65.388 C 219.759 61.379 218.951 57.422 217.9 53.535 Z" style="text-wrap-mode: nowrap; stroke-width: 0px; stroke-miterlimit: 1; stroke: rgb(218, 119, 88);"/>
</svg>